<mxfile host="app.diagrams.net" modified="2023-08-08T02:14:27.538Z" agent="Mozilla/5.0 (Macintosh; Intel Mac OS X 10_15_7) AppleWebKit/537.36 (KHTML, like Gecko) Chrome/115.0.0.0 Safari/537.36" version="21.6.6" etag="v_GVB13Dkmx0gViXDb0M" type="github">
  <diagram name="Page-1" id="O0pugjZIgAhFcE3oilnI">
    <mxGraphModel>
      <root>
        <mxCell id="0" />
        <mxCell id="1" parent="0" />
      </root>
    </mxGraphModel>
  </diagram>
</mxfile>
